<?xml version="1.0" encoding="UTF-8"?>
<svg version="1.1" xmlns="http://www.w3.org/2000/svg" width="256" height="304">
<path d="M0 0 C4.73782148 5.45649834 8.25076349 11.64867052 11.75 17.9375 C12.80773473 19.81298473 13.86633966 21.68797893 14.92578125 23.5625 C15.4460791 24.48546875 15.96637695 25.4084375 16.50244141 26.359375 C18.60950167 30.07472612 20.76541576 33.75988291 22.9375 37.4375 C23.33348389 38.10894043 23.72946777 38.78038086 24.13745117 39.47216797 C26.48400656 43.44598521 28.83950576 47.41447494 31.1953125 51.3828125 C36.27639236 59.94867431 41.34991171 68.51640852 46.25 77.1875 C46.62068604 77.84049072 46.99137207 78.49348145 47.37329102 79.16625977 C50.35683398 84.48680399 51.77734826 88.86880243 51 95 C49.09518008 100.92126877 45.98969212 104.42043826 41 108 C37.88732479 109.55633761 34.58587647 109.144276 31.16912842 109.14044189 C30.35085894 109.14341302 29.53258946 109.14638414 28.68952394 109.1494453 C25.93200315 109.1581563 23.17452566 109.15964257 20.41699219 109.16113281 C18.44616096 109.16575933 16.47533062 109.17078376 14.50450134 109.17617798 C9.1386859 109.18932099 3.77288298 109.19575077 -1.59294605 109.20018864 C-4.94353467 109.20311662 -8.29411984 109.20722092 -11.64470673 109.21169281 C-22.12267169 109.22537345 -32.6006288 109.23503703 -43.07860208 109.2388947 C-55.18331978 109.24337541 -67.28792456 109.26092159 -79.39260793 109.2898953 C-88.74213622 109.31149906 -98.09163272 109.3215983 -107.44118571 109.32293582 C-113.02829114 109.32398489 -118.61529049 109.32991421 -124.20236969 109.34775543 C-129.4587198 109.36421326 -134.71488387 109.3664027 -139.97125053 109.35761642 C-141.9005807 109.35684479 -143.82992077 109.36120532 -145.75922585 109.37107468 C-148.39343754 109.38375957 -151.02698689 109.37793622 -153.66119385 109.36749268 C-154.42443317 109.37554908 -155.18767249 109.38360548 -155.97404027 109.39190602 C-160.7308768 109.34780995 -163.9648052 108.52204539 -168 106 C-173.12970981 100.63712157 -175.31235596 96.61066611 -175.23022461 89.14941406 C-174.8491434 85.59157849 -173.30793371 82.65485122 -171.625 79.5625 C-171.26341797 78.8713208 -170.90183594 78.1801416 -170.52929688 77.46801758 C-166.77575193 70.38535963 -162.6976881 63.49305606 -158.57080078 56.62353516 C-156.39650557 52.99204987 -154.24378947 49.34789949 -152.08946228 45.70454407 C-146.01578933 35.4333524 -139.93006887 25.17015618 -133.74609375 14.96484375 C-132.1926043 12.32703951 -130.77374762 9.65902492 -129.375 6.9375 C-126.11698204 1.07306767 -121.88591838 -2.58329133 -115.5625 -4.875 C-98.68385419 -9.12023516 -83.47168439 -4.13061326 -68.92163086 4.49609375 C-65.54864255 6.47898875 -65.54864255 6.47898875 -61.7421875 6.89453125 C-59.6672919 5.94146602 -59.6672919 5.94146602 -57.3125 3.3125 C-53.5085677 -0.11103907 -49.31918601 -1.64112106 -44.5625 -3.3125 C-43.48899292 -3.69378052 -43.48899292 -3.69378052 -42.39379883 -4.08276367 C-28.90749539 -8.60794546 -11.66226203 -9.40308038 0 0 Z " fill="#9479FC" transform="translate(190,179)"/>
<path d="M0 0 C1.24222069 -0.01248528 1.24222069 -0.01248528 2.50953674 -0.02522278 C5.24623321 -0.04930996 7.98269121 -0.05809365 10.71948242 -0.06469727 C12.62513805 -0.07366514 14.53079296 -0.08278701 16.43644714 -0.09205627 C20.43193268 -0.10854573 24.42733443 -0.11624621 28.42285156 -0.11914062 C33.53415833 -0.12452191 38.64467386 -0.16219164 43.75575733 -0.20788479 C47.69267121 -0.23767875 51.62939517 -0.2448647 55.56641197 -0.24586678 C57.45022897 -0.25006505 59.33404673 -0.26248356 61.21775246 -0.28338432 C63.85799348 -0.31034533 66.49640877 -0.30545969 69.13671875 -0.29296875 C69.90943115 -0.30780304 70.68214355 -0.32263733 71.47827148 -0.33792114 C77.11990728 -0.26220156 80.65501407 1.42600578 84.76245117 5.30639648 C87.12841145 8.95391859 86.97863204 12.20773742 86.30151367 16.37280273 C85.44988628 19.42755317 84.08002609 21.18195281 81.76245117 23.30639648 C79.12182617 23.93530273 79.12182617 23.93530273 76.76245117 24.30639648 C76.7773853 35.29511519 76.81924342 46.28338073 76.89454174 57.27186108 C76.9286881 62.37547251 76.95390241 67.47878851 76.95800781 72.58251953 C76.96231738 77.51708402 76.99099861 82.45098347 77.03588295 87.38533974 C77.04877351 89.25853907 77.05319592 91.13181833 77.04860497 93.00505638 C77.02758261 104.19750771 77.63264257 113.14225775 82.76245117 123.30639648 C83.09054276 123.97428696 83.41863434 124.64217743 83.75666809 125.33030701 C84.58106835 126.90928186 85.49149179 128.44249489 86.40698242 129.97045898 C87.07584473 131.0985498 87.74470703 132.22664062 88.43383789 133.38891602 C89.14739849 134.56982975 89.86110658 135.75065439 90.57495117 136.93139648 C91.32608477 138.191072 92.07622768 139.45133871 92.82543945 140.7121582 C94.36678007 143.30271578 95.91348326 145.88994252 97.46508789 148.47436523 C100.36656693 153.30899157 103.23962279 158.16033679 106.11254883 163.01196289 C107.45599386 165.28062592 108.80070842 167.54853767 110.14672852 169.81567383 C114.49478582 177.14277464 118.78666908 184.49994932 123.04003906 191.88232422 C125.67393077 196.44723908 128.34968972 200.98298982 131.07495117 205.49389648 C135.63941218 213.04908264 140.08288307 220.67387161 144.51489258 228.30737305 C147.23790408 232.99465761 149.97040227 237.67313047 152.77807617 242.31030273 C153.2331958 243.06649902 153.68831543 243.82269531 154.15722656 244.60180664 C154.98243298 245.96920251 155.81430108 247.33261506 156.65478516 248.69067383 C162.1716895 257.86666348 163.86700075 266.61289999 162.76245117 277.30639648 C161.82297316 280.89568428 160.50322531 284.03713774 158.76245117 287.30639648 C158.20557617 288.35827148 157.64870117 289.41014648 157.07495117 290.49389648 C150.86301575 298.04895307 142.62899034 303.39761297 132.74980354 304.538908 C126.94920365 304.919049 121.13883929 304.85115455 115.32885742 304.82397461 C113.37465902 304.82940247 111.42046471 304.83652885 109.46627808 304.84521484 C104.18526452 304.86337205 98.9045653 304.85641212 93.6235466 304.8436985 C88.08203062 304.83353134 82.54054054 304.84297447 76.99902344 304.84924316 C67.69518226 304.85650876 58.39146832 304.8469604 49.08764648 304.82788086 C38.3499243 304.80611429 27.61250597 304.81316642 16.87479115 304.83518648 C7.63538173 304.85337147 -1.6039365 304.85588365 -10.84335804 304.8454318 C-16.35280649 304.83921392 -21.86211237 304.83831423 -27.37155151 304.85157776 C-32.55261244 304.86318076 -37.73328374 304.8550294 -42.91430283 304.83200073 C-44.80927765 304.82673737 -46.70428558 304.82818649 -48.59924698 304.83705139 C-64.66643499 304.90525362 -75.68591556 302.5998775 -87.55004883 291.05639648 C-93.1186793 281.98159127 -94.48660149 272.84527835 -93.23754883 262.30639648 C-91.04859827 253.96102248 -86.25808103 246.70352358 -81.76098633 239.42749023 C-78.99240289 234.94081424 -76.36423993 230.37714097 -73.73754883 225.80639648 C-70.51446815 220.21410478 -67.26392626 214.64285441 -63.92504883 209.11889648 C-56.56022589 196.92396312 -49.43127472 184.58547812 -42.31567383 172.24389648 C-37.6299215 164.11718847 -32.89193942 156.02879301 -28.05004883 147.99389648 C-13.41990344 125.41070494 -13.41990344 125.41070494 -7.91870117 99.68725586 C-7.90865555 98.86678772 -7.89860992 98.04631958 -7.88825989 97.20098877 C-7.85762804 94.51738112 -7.84044892 91.8338723 -7.82348633 89.15014648 C-7.80475855 87.27827109 -7.78518396 85.406404 -7.76480103 83.5345459 C-7.71364382 78.62903758 -7.6739306 73.72350194 -7.63665771 68.81787109 C-7.59651478 63.80356173 -7.54546954 58.78936441 -7.49536133 53.77514648 C-7.39879654 43.95230871 -7.31432995 34.12940743 -7.23754883 24.30639648 C-8.88754883 23.97639648 -10.53754883 23.64639648 -12.23754883 23.30639648 C-12.73254883 21.82139648 -12.73254883 21.82139648 -13.23754883 20.30639648 C-13.89754883 20.30639648 -14.55754883 20.30639648 -15.23754883 20.30639648 C-17.61607907 15.82916309 -17.58296255 12.08793879 -16.23754883 7.30639648 C-11.97729683 0.54875539 -7.59795764 0.00648466 0 0 Z M-6.23754883 10.30639648 C-6.56754883 11.95639648 -6.89754883 13.60639648 -7.23754883 15.30639648 C-4.19598483 16.82717849 -1.03470601 16.44494519 2.30151367 16.43579102 C3.07887878 16.43754333 3.8562439 16.43929565 4.65716553 16.44110107 C7.23394993 16.4455124 9.81066604 16.44258412 12.38745117 16.43920898 C14.17342136 16.43988223 15.95939146 16.44085243 17.74536133 16.44210815 C21.49130118 16.44358415 25.23721721 16.44143371 28.9831543 16.43676758 C33.79202165 16.43107035 38.60083319 16.43434988 43.40969849 16.44034004 C47.09847435 16.44394829 50.78723692 16.44280585 54.47601318 16.44021225 C56.24949144 16.43954371 58.02297089 16.44036886 59.79644775 16.4426918 C62.2721274 16.44522263 64.74771584 16.44137162 67.22338867 16.43579102 C68.32997833 16.43882736 68.32997833 16.43882736 69.45892334 16.44192505 C73.2363482 16.48718586 73.2363482 16.48718586 76.76245117 15.30639648 C76.26745117 12.83139648 76.26745117 12.83139648 75.76245117 10.30639648 C48.70245117 10.30639648 21.64245117 10.30639648 -6.23754883 10.30639648 Z M1.76245117 25.30639648 C1.67852257 27.58374076 1.666193 29.86373378 1.68066406 32.14257812 C1.68373062 32.85829483 1.68679718 33.57401154 1.68995667 34.31141663 C1.69713304 35.8736131 1.70653392 37.43580053 1.71785164 38.99797249 C1.7352365 41.48501814 1.74554328 43.97199939 1.75376892 46.45909119 C1.77819837 53.53398764 1.8132322 60.60879952 1.85839844 67.68359375 C1.88551295 72.00954544 1.90234417 76.33544524 1.91326714 80.6614666 C1.91939883 82.29779386 1.92930241 83.93411221 1.94334602 85.5703907 C2.19317871 114.99866598 2.19317871 114.99866598 -3.86254883 125.49389648 C-4.39041992 126.477854 -4.39041992 126.477854 -4.92895508 127.48168945 C-7.83042219 132.8109411 -11.00633999 137.98158326 -14.24536133 143.11108398 C-16.64161133 146.95448104 -18.87777959 150.87696532 -21.11010742 154.81713867 C-23.65247332 159.29706783 -26.24446096 163.74532355 -28.86254883 168.18139648 C-32.94827267 175.1054718 -37.00407493 182.04652246 -41.05004883 188.99389648 C-45.61038243 196.82008916 -50.18944863 204.63470581 -54.80004883 212.43139648 C-55.32928955 213.32640869 -55.85853027 214.2214209 -56.40380859 215.14355469 C-59.13994023 219.76793797 -61.88052882 224.38964802 -64.62426758 229.00952148 C-69.62468609 237.43541787 -74.61817269 245.86640037 -79.48754883 254.36889648 C-79.85847656 255.00553223 -80.2294043 255.64216797 -80.61157227 256.2980957 C-84.35567355 262.90332339 -85.46178506 270.00458603 -83.74145508 277.45483398 C-80.76533607 286.23186291 -75.22340578 290.31346801 -67.23754883 294.30639648 C-57.62870788 295.8306534 -47.75777922 295.45486464 -38.05737305 295.45166016 C-36.23786348 295.45465708 -34.41835455 295.45806083 -32.59884644 295.46183777 C-27.68582365 295.47062383 -22.7728183 295.47301349 -17.85978842 295.47365355 C-14.78602132 295.47436668 -11.71225859 295.47650586 -8.63849258 295.47915077 C2.0962324 295.48838355 12.83094501 295.49248791 23.56567383 295.49169922 C33.55581757 295.49109771 43.54590745 295.50166913 53.53603756 295.51744288 C62.13166053 295.53052901 70.7272659 295.53588272 79.32289875 295.53524381 C84.44883746 295.53498931 89.57472815 295.53781457 94.70065689 295.54842186 C99.51881498 295.5581219 104.33687929 295.55816896 109.15504074 295.55090523 C110.91863391 295.54986204 112.68223298 295.55220645 114.44581604 295.55826569 C132.33205587 295.67022414 132.33205587 295.67022414 147.76245117 287.30639648 C152.976493 280.88911423 154.58925166 274.41175208 153.76245117 266.30639648 C152.16342662 257.85214787 147.10305135 250.58677418 142.76245117 243.30639648 C141.75259693 241.59850028 140.74352984 239.89013849 139.73510742 238.18139648 C138.07622887 235.37150527 136.4163729 232.56221926 134.75317383 229.75488281 C131.22135057 223.79182028 127.72446342 217.8102278 124.26245117 211.80639648 C118.67744161 202.12469035 112.98588509 192.50711272 107.29077148 182.88989258 C105.04580296 179.09496336 102.80945515 175.29499411 100.57495117 171.49389648 C100.17252197 170.809646 99.77009277 170.12539551 99.35546875 169.42041016 C97.34942578 166.00879731 95.34565344 162.59586937 93.34448242 159.18139648 C92.5254831 157.78555664 91.70647263 156.38972334 90.88745117 154.99389648 C90.48421631 154.30505371 90.08098145 153.61621094 89.66552734 152.90649414 C87.34937354 148.96173092 84.9969046 145.0424222 82.60620117 141.14233398 C82.0710791 140.26488525 81.53595703 139.38743652 80.98461914 138.48339844 C79.95362028 136.79569334 78.91660461 135.11164229 77.87231445 133.43212891 C71.2279811 122.53214605 67.48126295 111.56047816 67.44360352 98.75732422 C67.42853508 97.55566368 67.42853508 97.55566368 67.41316223 96.32972717 C67.38259647 93.71648796 67.3653701 91.10334989 67.34838867 88.48999023 C67.32965554 86.66438442 67.31008057 84.83878706 67.28970337 83.01319885 C67.23860262 78.23429375 67.19885951 73.45536065 67.16156006 68.67633057 C67.12138136 63.78927814 67.0703526 58.90233998 67.02026367 54.01538086 C66.9237659 44.44579993 66.83927827 34.87615415 66.76245117 25.30639648 C63.39526408 24.28920731 60.32549972 24.17965074 56.81640625 24.17700195 C55.61869095 24.17384979 54.42097565 24.17069763 53.18696594 24.16744995 C51.89832138 24.16947418 50.60967682 24.17149841 49.28198242 24.17358398 C47.94487999 24.17291023 46.60777767 24.1719396 45.27067566 24.17068481 C42.47405832 24.16921276 39.67747299 24.1713476 36.88085938 24.17602539 C33.28935372 24.18173899 29.69792252 24.17843031 26.10641956 24.17245293 C23.34843886 24.16884814 20.59047596 24.16998523 17.83249474 24.17258072 C15.86202827 24.17357513 13.89156111 24.17053068 11.9210968 24.16744995 C10.73283798 24.17060211 9.54457916 24.17375427 8.3203125 24.17700195 C7.26870438 24.17779755 6.21709625 24.17859314 5.13362122 24.17941284 C2.80693167 24.03915552 2.80693167 24.03915552 1.76245117 25.30639648 Z " fill="#FEFDFE" transform="translate(93.237548828125,-0.306396484375)"/>
<path d="M0 0 C4.73782148 5.45649834 8.25076349 11.64867052 11.75 17.9375 C12.80773473 19.81298473 13.86633966 21.68797893 14.92578125 23.5625 C15.4460791 24.48546875 15.96637695 25.4084375 16.50244141 26.359375 C18.60950167 30.07472612 20.76541576 33.75988291 22.9375 37.4375 C23.33348389 38.10894043 23.72946777 38.78038086 24.13745117 39.47216797 C26.48400656 43.44598521 28.83950576 47.41447494 31.1953125 51.3828125 C36.27639236 59.94867431 41.34991171 68.51640852 46.25 77.1875 C46.62068604 77.84049072 46.99137207 78.49348145 47.37329102 79.16625977 C50.35683398 84.48680399 51.77734826 88.86880243 51 95 C49.09518008 100.92126877 45.98969212 104.42043826 41 108 C37.88732479 109.55633761 34.58587647 109.144276 31.16912842 109.14044189 C30.35085894 109.14341302 29.53258946 109.14638414 28.68952394 109.1494453 C25.93200315 109.1581563 23.17452566 109.15964257 20.41699219 109.16113281 C18.44616096 109.16575933 16.47533062 109.17078376 14.50450134 109.17617798 C9.1386859 109.18932099 3.77288298 109.19575077 -1.59294605 109.20018864 C-4.94353467 109.20311662 -8.29411984 109.20722092 -11.64470673 109.21169281 C-22.12267169 109.22537345 -32.6006288 109.23503703 -43.07860208 109.2388947 C-55.18331978 109.24337541 -67.28792456 109.26092159 -79.39260793 109.2898953 C-88.74213622 109.31149906 -98.09163272 109.3215983 -107.44118571 109.32293582 C-113.02829114 109.32398489 -118.61529049 109.32991421 -124.20236969 109.34775543 C-129.4587198 109.36421326 -134.71488387 109.3664027 -139.97125053 109.35761642 C-141.9005807 109.35684479 -143.82992077 109.36120532 -145.75922585 109.37107468 C-148.39343754 109.38375957 -151.02698689 109.37793622 -153.66119385 109.36749268 C-154.42443317 109.37554908 -155.18767249 109.38360548 -155.97404027 109.39190602 C-160.7308768 109.34780995 -163.9648052 108.52204539 -168 106 C-173.12970981 100.63712157 -175.31235596 96.61066611 -175.23022461 89.14941406 C-174.8491434 85.59157849 -173.30793371 82.65485122 -171.625 79.5625 C-171.26341797 78.8713208 -170.90183594 78.1801416 -170.52929688 77.46801758 C-166.77575193 70.38535963 -162.6976881 63.49305606 -158.57080078 56.62353516 C-156.39650557 52.99204987 -154.24378947 49.34789949 -152.08946228 45.70454407 C-146.01578933 35.4333524 -139.93006887 25.17015618 -133.74609375 14.96484375 C-132.1926043 12.32703951 -130.77374762 9.65902492 -129.375 6.9375 C-126.11698204 1.07306767 -121.88591838 -2.58329133 -115.5625 -4.875 C-98.68385419 -9.12023516 -83.47168439 -4.13061326 -68.92163086 4.49609375 C-65.54864255 6.47898875 -65.54864255 6.47898875 -61.7421875 6.89453125 C-59.6672919 5.94146602 -59.6672919 5.94146602 -57.3125 3.3125 C-53.5085677 -0.11103907 -49.31918601 -1.64112106 -44.5625 -3.3125 C-43.48899292 -3.69378052 -43.48899292 -3.69378052 -42.39379883 -4.08276367 C-28.90749539 -8.60794546 -11.66226203 -9.40308038 0 0 Z M-121 8 C-121.08563836 12.6244715 -120.53333033 14.44186361 -117.3125 17.8125 C-114.19684767 19.87000626 -111.59329184 21.05889976 -108 22 C-108.33 23.32 -108.66 24.64 -109 26 C-116.21020553 25.31331376 -120.52820617 21.40142607 -126 17 C-132.65420255 27.36489903 -138.91669976 37.92649257 -145.01416016 48.62817383 C-148.42572642 54.60035172 -151.90269101 60.5100803 -155.51953125 66.359375 C-156.63149635 68.17379669 -157.74220794 69.9889808 -158.85272217 71.80429077 C-159.91204494 73.5212424 -160.99217215 75.22530291 -162.07275391 76.92895508 C-165.97685348 83.32054052 -168.00792413 87.47817817 -167 95 C-165.37599816 98.63467079 -164.33886956 99.77408696 -161 102 C-158.36289186 102.19554749 -155.83145202 102.27390984 -153.19400024 102.26069641 C-152.39050498 102.26452196 -151.58700972 102.26834751 -150.75916612 102.27228898 C-148.0576399 102.28263571 -145.35632555 102.27862366 -142.65478516 102.2746582 C-140.72159121 102.27900378 -138.78839899 102.28418641 -136.85520935 102.29014587 C-131.59693519 102.30356448 -126.33873277 102.30411131 -121.08044481 102.30158257 C-116.6941553 102.30051468 -112.30788041 102.30539162 -107.92159402 102.310188 C-97.5746714 102.32129333 -87.22778508 102.32171499 -76.88085938 102.31567383 C-66.2000408 102.30963367 -55.51935394 102.32194381 -44.83855784 102.3432439 C-35.67500455 102.36084757 -26.51149322 102.36686316 -17.34792364 102.36360615 C-11.87209646 102.361791 -6.39636321 102.36445251 -0.9205513 102.37832069 C4.2291212 102.39087413 9.37858812 102.38897846 14.52825737 102.37590981 C16.41930269 102.37353896 18.31036235 102.37629684 20.20139122 102.38453293 C22.78117856 102.39495929 25.36027089 102.38693297 27.94003296 102.3742218 C28.68993921 102.38159609 29.43984545 102.38897037 30.21247613 102.39656812 C34.65073506 102.35050311 37.4856438 101.75699404 41 99 C43.90017748 94.64973377 43.83686677 91.10401557 43 86 C41.25658976 81.75411873 38.91865244 77.95495816 36.5 74.0625 C35.47459986 72.35161069 34.44921636 70.64071119 33.42472839 68.92927551 C32.35267224 67.14641945 31.27066406 65.36995767 30.18603516 63.59472656 C28.02263805 60.04818577 25.90214192 56.47743047 23.79296875 52.8984375 C23.10416741 51.73014279 22.41536533 50.56184852 21.7265625 49.39355469 C21.38915039 48.82117065 21.05173828 48.24878662 20.70410156 47.65905762 C19.04207078 44.84450189 17.37030653 42.03574727 15.69921875 39.2265625 C12.45123202 33.76392535 9.21944865 28.29199805 6 22.8125 C5.58451904 22.10536865 5.16903809 21.3982373 4.7409668 20.66967773 C3.82692419 19.11334572 2.91338998 17.55671513 2 16 C-0.38580727 17.12566272 -2.09077215 18.08252014 -4.0625 19.875 C-14.38079665 27.3392997 -26.75718487 27.26154331 -39 26 C-49.69444037 23.87231029 -59.41379916 17.85351076 -68.921875 12.71875 C-95.41884268 -1.69168847 -95.41884268 -1.69168847 -121 8 Z " fill="#FCFCFE" transform="translate(190,179)"/>
<path d="M0 0 C3 0.3125 3 0.3125 6 1 C7.47457566 3.94915132 7.15179462 6.59745427 7.17700195 9.88964844 C7.18685875 10.95363106 7.18685875 10.95363106 7.19691467 12.03910828 C7.21668023 14.39586497 7.22832614 16.75255738 7.23828125 19.109375 C7.24235678 19.91750893 7.2464323 20.72564285 7.25063133 21.55826569 C7.27151989 25.84727219 7.28580158 30.13624656 7.29516602 34.42529297 C7.30615173 38.82290397 7.34045101 43.21999787 7.38033772 47.61742783 C7.40671389 51.02360867 7.41487695 54.42967119 7.41844749 57.83594513 C7.42327062 59.45440355 7.43475993 61.07285824 7.45348549 62.69121552 C7.61450472 77.54782275 4.96253179 89.69031039 -2.5625 102.75 C-3.08481201 103.67377441 -3.60712402 104.59754883 -4.14526367 105.54931641 C-5.22154211 107.44176321 -6.30524439 109.33000799 -7.39648438 111.21386719 C-8.95958369 113.92977605 -10.47431229 116.66840254 -11.984375 119.4140625 C-12.92466926 121.06908221 -13.86726525 122.72279698 -14.8125 124.375 C-15.44103882 125.53467285 -15.44103882 125.53467285 -16.08227539 126.71777344 C-17.27078943 128.73214106 -18.29684115 130.39612844 -20 132 C-23.82421875 132.4765625 -23.82421875 132.4765625 -27 132 C-27.96803915 129.06298801 -28.35228679 126.89184633 -27.19628906 123.96533203 C-25.91322821 121.61164809 -24.54424476 119.3366921 -23.125 117.0625 C-22.37367798 115.80832275 -22.37367798 115.80832275 -21.60717773 114.52880859 C-19.25477958 110.61423318 -16.84077416 106.74030851 -14.40234375 102.87890625 C-14.0057959 102.24138428 -13.60924805 101.6038623 -13.20068359 100.94702148 C-12.14009757 99.24921935 -11.05721634 97.56540105 -9.97265625 95.8828125 C-4.11970464 85.2770371 -3.4193105 74.24150551 -3.4609375 62.4453125 C-3.45100243 60.88881059 -3.43905068 59.33232039 -3.42520142 57.77584839 C-3.39314083 53.71800649 -3.38247342 49.66043408 -3.37835693 45.60247803 C-3.36953149 39.08913992 -3.33389385 32.57601941 -3.2861824 26.0628624 C-3.2736895 23.80338884 -3.27434587 21.54419923 -3.27645874 19.28469849 C-3.26987522 17.89178249 -3.26286833 16.49886841 -3.25537109 15.10595703 C-3.25411224 13.8994046 -3.25285339 12.69285217 -3.2515564 11.44973755 C-2.60671959 2.60671959 -2.60671959 2.60671959 0 0 Z " fill="#FDFDFE" transform="translate(104,34)"/>
<path d="M0 0 C2.375 2.125 2.375 2.125 2.75390625 4.52734375 C2.14990283 8.66819197 -0.41257459 10.08338644 -3.53515625 12.61328125 C-9.90596202 17.22169589 -17.96174138 17.84461407 -25.625 17.125 C-29.78028787 16.14529798 -33.49996606 14.82814621 -37.125 12.5625 C-40.74064517 10.48350403 -44.55371716 9.87894127 -48.625 9.125 C-48.955 7.475 -49.285 5.825 -49.625 4.125 C-33.81252868 -3.30061343 -16.35402918 -9.48842259 0 0 Z " fill="#5EB5FE" transform="translate(184.625,183.875)"/>
<path d="M0 0 C2.25 0.875 2.25 0.875 4 2 C4 2.99 4 3.98 4 5 C-2.91587241 8.82407063 -9.92606605 11.38001935 -17.484375 13.59375 C-21.85120328 15.34048131 -25.81783348 17.63566697 -28 22 C-28.31263783 24.44610155 -28.55805571 26.85701757 -28.75 29.3125 C-28.81832031 29.97701172 -28.88664062 30.64152344 -28.95703125 31.32617188 C-29.30546592 35.84242127 -28.82548964 38.44221602 -26 42 C-21.52898023 44.98067984 -17.23767324 44.7187464 -12 44 C-8.62231551 42.28944376 -8.62231551 42.28944376 -7 39 C-6.39678556 35.86876869 -6.35078827 33.12583427 -7 30 C-8.52077886 27.71234228 -8.52077886 27.71234228 -11 27 C-14.37036311 27.24074022 -15.58798021 27.58798021 -18 30 C-18.70710678 31.64991582 -19.37943989 33.31562256 -20 35 C-21.875 34.6875 -21.875 34.6875 -24 34 C-26 31 -26 31 -25.84375 29.015625 C-24.18122536 25.04403835 -20.71002561 22.95198649 -17 21 C-13.7797083 20.16327464 -11.21229649 20.11503818 -8 21 C-4.63347825 23.07654612 -1.78417491 25.43165017 0 29 C0.5238576 34.25575165 0.66505372 38.64526095 -1.6875 43.4375 C-5.46734178 47.62597333 -8.66340832 50.67590431 -14.453125 51.23828125 C-20.95941412 51.41093417 -24.81424444 51.04488934 -30 47 C-34.9616415 41.53557882 -37.26890679 36.12380692 -37 28.6875 C-36.16839812 21.7322843 -33.2796422 17.05910227 -28.19921875 12.3203125 C-21.58169238 7.36038011 -13.53460488 5.17749296 -5.77001953 2.63427734 C-3.85949015 1.99389151 -3.85949015 1.99389151 -1.62890625 0.7734375 C-1.09136719 0.51820313 -0.55382812 0.26296875 0 0 Z " fill="#FBF9FE" transform="translate(114,196)"/>
<path d="M0 0 C4.34468141 2.1723407 7.60032162 4.75441518 10 9 C10.67302515 13.58262071 10.58809792 17.57618398 8.8125 21.875 C5.84094187 25.35889574 2.52755719 28.63495975 -2.13671875 29.30859375 C-7.00356086 29.55454442 -10.16583836 29.45455194 -14 26.25 C-17.68885396 22.73849479 -19.31093246 19.34627136 -19.5625 14.25 C-19.4905536 8.85402007 -17.40695585 6.25978818 -13.7265625 2.49609375 C-9.70703068 -0.98689423 -5.07748072 -0.56242863 0 0 Z " fill="#FCF9FE" transform="translate(190,232)"/>
<path d="M0 0 C3.60953939 2.97256185 6.80172592 6.31930629 7.43359375 11.0703125 C7.72400677 17.38899572 7.12981039 21.32878467 2.890625 26.15234375 C-0.46289094 29.18683052 -3.56102788 30.66100107 -8.109375 30.8359375 C-13.31490311 30.50404141 -16.88993258 29.27168749 -20.875 25.75 C-24.55205217 20.91177346 -25.52885852 17.18380221 -25.26171875 11.11328125 C-24.47287926 6.2925955 -21.82326487 3.60575122 -18.3125 0.4375 C-12.72613205 -3.4299855 -6.04713875 -2.62919076 0 0 Z M-14.25 8.3125 C-16.4746142 11.6494213 -16.37530235 13.81905293 -15.875 17.75 C-14.34109879 20.17194927 -13.18091626 20.63729401 -10.5 21.625 C-7.10360594 21.78673305 -5.58939577 20.71039694 -2.875 18.75 C-1.50502255 17.59254513 -1.50502255 17.59254513 -1.5625 14.4375 C-1.57409799 10.77668938 -1.57409799 10.77668938 -3.5 8.3125 C-7.40167311 5.74560979 -10.34832689 5.74560979 -14.25 8.3125 Z " fill="#DAF4FF" transform="translate(125.875,142.25)"/>
<path d="M0 0 C0 0.66 0 1.32 0 2 C-1.65 2.33 -3.3 2.66 -5 3 C-5 3.99 -5 4.98 -5 6 C-4.01 6.33 -3.02 6.66 -2 7 C-2 7.99 -2 8.98 -2 10 C-3.216875 10.226875 -4.43375 10.45375 -5.6875 10.6875 C-9.95690036 11.74157931 -12.22035304 13.5254413 -15 17 C-15 19.15634036 -14.5534764 20.92446352 -14 23 C-13.01 23 -12.02 23 -11 23 C-10.7525 22.236875 -10.505 21.47375 -10.25 20.6875 C-8.85283232 17.68358949 -7.93556259 16.50971791 -5 15 C-2.17710906 15.137702 -0.59976038 15.52711201 1.625 17.28125 C3.80242991 20.00303738 3.46755193 22.40384819 3.36328125 25.7734375 C2.83094418 29.03614855 1.3693469 30.77002644 -1 33 C-4.94510619 34.9725531 -9.69933007 34.44125371 -14 34 C-17.52639003 32.12885427 -18.62059183 30.92480741 -20.125 27.2578125 C-21.69148746 21.42544401 -21.58316231 14.55529122 -19.09375 8.96484375 C-14.80788322 3.3034454 -6.90706403 0 0 0 Z " fill="#B895FB" transform="translate(105,207)"/>
<path d="M0 0 C1 2 1 2 0.36328125 3.953125 C-1.76342753 8.60184159 -4.06493801 12.79307781 -7 17 C-8.93820237 20.26434083 -9.84418746 23.18259278 -10 27 C-8.21531661 29.77287937 -8.21531661 29.77287937 -6 32 C-5.67 32.66 -5.34 33.32 -5 34 C60.01 34 125.02 34 192 34 C191.67 34.66 191.34 35.32 191 36 C165.40080071 36.11673947 139.80164125 36.20494226 114.2022295 36.25906086 C102.31628846 36.28485563 90.4305127 36.32003068 78.54467773 36.37719727 C68.18642893 36.42699301 57.82829981 36.45928174 47.46993464 36.47044247 C41.98388811 36.47696767 36.498184 36.49233049 31.01224709 36.52865028 C25.85024457 36.56254907 20.68872602 36.57306525 15.52662277 36.56553841 C13.63071629 36.56691568 11.73479388 36.57688449 9.83898354 36.59602737 C7.2521103 36.62087031 4.66706918 36.61493795 2.08015442 36.60127258 C0.95222551 36.62311889 0.95222551 36.62311889 -0.19848984 36.64540654 C-4.1691939 36.58862657 -5.82921789 36.14002517 -8.94250965 33.58742046 C-11.8929077 29.87711374 -12.46403471 27.40006206 -12.41015625 22.59814453 C-11.61851659 17.58348423 -8.72918997 13.62656074 -6 9.4375 C-5.42765625 8.52419922 -4.8553125 7.61089844 -4.265625 6.66992188 C-2.86125827 4.43463816 -1.43960309 2.21268782 0 0 Z " fill="#AE69E1" transform="translate(35,245)"/>
<path d="M0 0 C3.8363577 1.81355091 5.50641782 3.03429573 7.4375 6.8125 C8.11351072 10.64322742 8.0260725 13.23773417 7 17 C4.81008403 19.58297781 3.03168312 21.48415844 0 23 C-5.3401391 23.35017306 -8.66462219 23.46830225 -13 20 C-16.38729901 16.20062081 -16.56109792 13.36385484 -16.4296875 8.4140625 C-15.77649986 4.74433559 -13.92448816 3.15855078 -11 1 C-7.52288868 -0.73855566 -3.80162377 -0.45363914 0 0 Z M-6 8 C-7.29633621 9.06645115 -7.29633621 9.06645115 -7.0625 11.5625 C-7.041875 12.366875 -7.02125 13.17125 -7 14 C-5.68 14.33 -4.36 14.66 -3 15 C-2.34 13.68 -1.68 12.36 -1 11 C-1.66 10.01 -2.32 9.02 -3 8 C-3.99 8 -4.98 8 -6 8 Z " fill="#BDECFF" transform="translate(148,121)"/>
<path d="M0 0 C2.8100346 1.79363911 4.50940468 3.01880935 6 6 C6.64797087 10.71167386 6.68157643 13.97763536 4 18 C0.30157181 20.46561879 -2.5538409 21.44374582 -7 21 C-10.49604053 19.31672123 -12.38947566 17.98214784 -14.4375 14.6875 C-15.20516967 11.01974492 -15.03309427 8.61582995 -14 5 C-9.60935655 -0.03317664 -6.58282375 -0.94040339 0 0 Z " fill="#FCF6FE" transform="translate(130,250)"/>
<path d="M0 0 C3.48010588 2.41476734 4.68025219 3.97680701 5.9375 8 C6.03452247 12.65707876 5.00433879 14.93827042 1.8125 18.3125 C-1.78147168 20.46888301 -3.86672399 20.5166595 -8 20 C-11.81215241 18.30571004 -13.48308675 16.85115874 -15 13 C-15.22213977 8.79415361 -14.62509064 5.11429201 -12.5625 1.4375 C-8.47931925 -0.85306481 -4.55672142 -0.8479336 0 0 Z M-6 8 C-6 8.99 -6 9.98 -6 11 C-5.01 11 -4.02 11 -3 11 C-3.33 10.01 -3.66 9.02 -4 8 C-4.66 8 -5.32 8 -6 8 Z " fill="#A9E5FF" transform="translate(134,92)"/>
<path d="M0 0 C16.78979208 9.05967292 31.48718307 14.5637507 50.86328125 10.76953125 C56.11200901 9.04173428 60.04622983 6.51514485 63.97265625 2.63671875 C65.3125 1.46484375 65.3125 1.46484375 67.3125 1.46484375 C68.8203125 3.58203125 68.8203125 3.58203125 70.4375 6.33984375 C70.97632813 7.24476563 71.51515625 8.1496875 72.0703125 9.08203125 C73.3125 11.46484375 73.3125 11.46484375 73.3125 13.46484375 C72.6525 13.46484375 71.9925 13.46484375 71.3125 13.46484375 C69.09060176 11.24294551 68.38651108 9.38001667 67.3125 6.46484375 C66.6525 6.46484375 65.9925 6.46484375 65.3125 6.46484375 C64.3225 7.94984375 64.3225 7.94984375 63.3125 9.46484375 C60.43899179 10.83173455 57.37252855 11.60842066 54.3125 12.46484375 C53.59578125 12.67367187 52.8790625 12.8825 52.140625 13.09765625 C39.78540163 16.29919223 22.52610981 15.87262078 11.3125 9.46484375 C10.8175 8.47484375 10.8175 8.47484375 10.3125 7.46484375 C8.67017228 6.7402874 6.99625165 6.0870998 5.3125 5.46484375 C0.51919268 3.56560878 -3.54672406 1.38484995 -7.79296875 -1.546875 C-9.92244362 -2.84349194 -9.92244362 -2.84349194 -13.6875 -2.53515625 C-13.6875 -3.52515625 -13.6875 -4.51515625 -13.6875 -5.53515625 C-15.9975 -5.86515625 -18.3075 -6.19515625 -20.6875 -6.53515625 C-20.6875 -7.19515625 -20.6875 -7.85515625 -20.6875 -8.53515625 C-29.49281247 -10.96420797 -39.87719487 -12.6782909 -48.5 -8.84765625 C-51.77104625 -6.84863952 -51.77104625 -6.84863952 -52.9375 -4.03515625 C-52.89104817 -1.46671946 -52.89104817 -1.46671946 -51.25 0.46484375 C-47.89315565 3.08481983 -44.34843039 5.29671992 -40.6875 7.46484375 C-41.5625 12.33984375 -41.5625 12.33984375 -42.6875 13.46484375 C-44.35367115 13.50548207 -46.02138095 13.50756475 -47.6875 13.46484375 C-47.048125 13.21734375 -46.40875 12.96984375 -45.75 12.71484375 C-43.50008459 11.64921942 -43.50008459 11.64921942 -42.9375 9.33984375 C-42.81375 8.41171875 -42.81375 8.41171875 -42.6875 7.46484375 C-43.55375 7.23796875 -44.42 7.01109375 -45.3125 6.77734375 C-49.31459945 5.22097174 -51.71818256 3.57226898 -54.6875 0.46484375 C-55.8125 -3.09765625 -55.8125 -3.09765625 -55.6875 -6.53515625 C-43.79571345 -25.14838738 -13.23036396 -7.15929946 0 0 Z " fill="#83A7ED" transform="translate(124.6875,193.53515625)"/>
<path d="M0 0 C2.69990662 1.79993774 4.5418865 3.083773 6 6 C6.40391526 9.63523738 6.23463713 11.56005537 4.5 14.8125 C1.58285166 17.36500479 -0.23064927 17.94149193 -4.03125 18.2109375 C-7.22582498 17.86866161 -8.85616798 16.27376123 -11 14 C-12.42662219 11.14675563 -12.31033868 9.16545451 -12 6 C-8.54235344 0.81353016 -6.24330406 -0.61208863 0 0 Z " fill="#FCF6FE" transform="translate(65,247)"/>
<path d="M0 0 C2.5625 1.5 2.5625 1.5 4 4 C4.58199542 8.58321396 4.54877707 10.85472611 2.5625 15 C-0.70204856 17.54794034 -2.81153884 17.67376597 -6.87109375 17.40625 C-9 17 -9 17 -11.5625 15.5625 C-13.7145847 11.72617511 -13.74831272 8.29295189 -13 4 C-10.14303498 -1.09285069 -5.27178986 -0.92860886 0 0 Z " fill="#BB97FA" transform="translate(190,238)"/>
<path d="M0 0 C2.5625 1.5 2.5625 1.5 4 4 C4.7099846 8.9698922 4.79117716 10.84919686 1.9375 15 C-1.77807226 17.52975133 -3.5882483 17.7878128 -8 17 C-10.93052231 15.00475077 -12.64521503 13.57163515 -13.4453125 10.02734375 C-13.63099028 6.71609006 -13.21285614 4.37018459 -11.5625 1.5 C-7.74317604 -0.73570183 -4.31481639 -0.76004105 0 0 Z " fill="#FBFBFE" transform="translate(153,219)"/>
<path d="M0 0 C0 0.66 0 1.32 0 2 C-1.65 2.33 -3.3 2.66 -5 3 C-5 3.99 -5 4.98 -5 6 C-4.01 6.33 -3.02 6.66 -2 7 C-2 7.99 -2 8.98 -2 10 C-3.216875 10.226875 -4.43375 10.45375 -5.6875 10.6875 C-9.95690036 11.74157931 -12.22035304 13.5254413 -15 17 C-15 19.42797311 -14.49914315 21.62907005 -14 24 C-14.99 24.33 -15.98 24.66 -17 25 C-16.67 27.31 -16.34 29.62 -16 32 C-18.87607895 29.40225127 -20.38372146 27.83020424 -21 24 C-21.22177296 11.73912351 -21.22177296 11.73912351 -17.9375 7.4375 C-12.67535689 3.07104082 -6.92984331 0 0 0 Z " fill="#D4C5FD" transform="translate(105,207)"/>
<path d="M0 0 C0.33 0.33 0.66 0.66 1 1 C3.32817964 1.36760731 5.6618385 1.70241581 8 2 C13.56844938 14.40598722 13.56844938 14.40598722 13 21 C11.1875 24.375 11.1875 24.375 9 27 C8.34 27.99 7.68 28.98 7 30 C4.08083215 31.99732537 1.50868398 33.46838121 -2 34 C-2.886875 34.144375 -3.77375 34.28875 -4.6875 34.4375 C-10.33880589 33.69110111 -14.94342671 30.61596122 -18.46484375 26.13671875 C-21.1860534 21.30439272 -22.06470115 16.45659341 -21 11 C-19.53353039 6.9531079 -17.73075668 3.96404765 -13.91015625 1.8359375 C-9.24191065 0.1282374 -4.93760479 -0.41146707 0 0 Z M-18 9 C-19.85602244 12.71204487 -19.44875601 16.9487305 -19 21 C-16.8276593 25.34468141 -14.24558482 28.60032162 -10 31 C-4.91194175 31.83522564 -1.14813729 31.60538148 3.4375 29.1875 C8.46860914 24.96919619 8.46860914 24.96919619 10.30859375 18.765625 C10.55662673 13.92522386 10.43073251 10.81367424 7.25 7 C3.73849479 3.31114604 0.34627136 1.68906754 -4.75 1.4375 C-10.83589004 1.5186452 -14.13945668 4.54475157 -18 9 Z " fill="#B490F1" transform="translate(190,230)"/>
<path d="M0 0 C-2.6855594 2.6855594 -5.37621328 3.06049974 -9 4 C-9 5.32 -9 6.64 -9 8 C-7.865625 8.61875 -6.73125 9.2375 -5.5625 9.875 C-2.125 11.75 -2.125 11.75 -1 14 C5.25540943 15.96929556 11.47791483 16.54441317 18 17 C18 17.33 18 17.66 18 18 C8.56439914 19.93550787 -0.1547131 19.65330431 -8.5 14.4375 C-12.11564517 12.35850403 -15.92871716 11.75394127 -20 11 C-20.33 9.35 -20.66 7.7 -21 6 C-18.72979898 5.01934513 -16.45887746 4.0404231 -14.1875 3.0625 C-13.54490234 2.78470703 -12.90230469 2.50691406 -12.24023438 2.22070312 C-4.11027238 -1.27560177 -4.11027238 -1.27560177 0 0 Z " fill="#85CCFE" transform="translate(156,182)"/>
<path d="M0 0 C0.66 0.33 1.32 0.66 2 1 C1.57847656 1.52207031 1.15695313 2.04414063 0.72265625 2.58203125 C-3.68804362 8.50793625 -5.64402339 13.55079613 -5 21 C-3.28559089 27.43900166 0.03630624 32.58435831 5.8203125 36.109375 C11.04804685 38.2454385 17.2141889 37.61691656 22.4375 35.8125 C25.84670514 33.401111 28.13384878 30.73230245 30 27 C30.5880376 21.85887123 31.17453731 16.68483868 27.8125 12.4375 C25.19508574 10.16907431 23.30394184 8.94398338 20 8 C21.5625 7.25 21.5625 7.25 24 7 C27.79136117 8.46333238 30.10004416 9.44414414 32.15234375 12.9921875 C34.06187254 18.07839783 34.71016234 22.78400485 33 28 C30.11478476 34.07956069 24.99333992 38.13449741 19 41 C12.03094183 42.21681968 6.81176616 39.87775033 1 36 C-3.59521492 31.84917829 -6.6338574 27.44744652 -7.30078125 21.16796875 C-7.33060432 13.58296754 -7.01582063 7.44665215 -1.8125 1.5 C-1.214375 1.005 -0.61625 0.51 0 0 Z " fill="#B896E9" transform="translate(83,209)"/>
<path d="M0 0 C1.0209375 0.804375 1.0209375 0.804375 2.0625 1.625 C2.0625 2.285 2.0625 2.945 2.0625 3.625 C2.7225 3.625 3.3825 3.625 4.0625 3.625 C4.45430108 5.20425975 4.82530736 6.78868794 5.1875 8.375 C5.39632812 9.25671875 5.60515625 10.1384375 5.8203125 11.046875 C6.16836838 14.75198594 4.99439695 16.49454546 2.6875 19.29296875 C-2.18228116 23.84668238 -6.36088049 24.59853473 -12.9375 24.625 C-13.2675 23.635 -13.5975 22.645 -13.9375 21.625 C-14.741875 20.8825 -15.54625 20.14 -16.375 19.375 C-19.38733874 16.14224623 -20.23999182 13.96505091 -20.9375 9.625 C-20.0625 6.6875 -20.0625 6.6875 -18.9375 4.625 C-18.2775 4.625 -17.6175 4.625 -16.9375 4.625 C-16.710625 4.00625 -16.48375 3.3875 -16.25 2.75 C-12.83938463 -2.77194869 -5.3298872 -2.49484082 0 0 Z M-16.9375 5.625 C-18.20122224 9.71351312 -18.2116007 11.83315353 -16.8125 15.875 C-14.68075381 19.00156108 -13.48023384 20.28663388 -9.9375 21.625 C-5.10906286 21.625 -2.9471486 21.29809907 1.0625 18.625 C3.42909113 15.0751133 3.72630999 12.96699986 3.49609375 8.78125 C2.85535558 5.59487639 1.39648654 3.82169322 -0.9375 1.625 C-7.41925499 -1.6158775 -12.57412585 0.62308329 -16.9375 5.625 Z " fill="#B877ED" transform="translate(132.9375,249.375)"/>
<path d="M0 0 C0 0.33 0 0.66 0 1 C-1.06476563 1.15855469 -2.12953125 1.31710938 -3.2265625 1.48046875 C-13.58031255 3.11281133 -23.53485669 5.26742835 -33 10 C-33.33 10.99 -33.66 11.98 -34 13 C-32.35 13 -30.7 13 -29 13 C-32 15 -32 15 -34 15 C-33.67 16.32 -33.34 17.64 -33 19 C-32.14535156 19.19335938 -31.29070312 19.38671875 -30.41015625 19.5859375 C-29.30542969 19.84632813 -28.20070312 20.10671875 -27.0625 20.375 C-25.96035156 20.63023437 -24.85820312 20.88546875 -23.72265625 21.1484375 C-22.82417969 21.42945313 -21.92570312 21.71046875 -21 22 C-20.67 22.66 -20.34 23.32 -20 24 C-27.24579719 24.67090715 -31.75838097 22.58125682 -38 19 C-37.67 17.68 -37.34 16.36 -37 15 C-37.66 15 -38.32 15 -39 15 C-39 12 -39 12 -36.5625 9.1875 C-26.2278552 0.85714995 -12.80730926 -1.00668806 0 0 Z " fill="#ECFDFF" transform="translate(169,173)"/>
<path d="M0 0 C1.72880982 -0.05449838 3.45812712 -0.09301688 5.1875 -0.125 C6.15042969 -0.14820313 7.11335938 -0.17140625 8.10546875 -0.1953125 C12.04920852 0.0707968 14.90506964 0.98058208 17.8125 3.6875 C19.50193235 6.97744721 19.38438874 9.34830698 19 13 C17.75 15.6875 17.75 15.6875 16 18 C15.484375 18.804375 14.96875 19.60875 14.4375 20.4375 C11.40104674 22.3839444 10.41084736 22.01615569 6.9375 21.375 C3.65315757 20.61441544 1.85792704 19.90528469 -1 18 C-2.92196624 13.84607297 -4.68484502 9.22194162 -3.296875 4.71875 C-2.1875 2.8125 -2.1875 2.8125 0 0 Z M0 5 C-1.42662219 7.85324437 -1.31033868 9.83454549 -1 13 C1.08213913 16.74785043 2.2947039 17.79482295 6.4375 19 C10.40316899 19 11.93779521 18.44976383 15 16 C17.34168764 12.48746854 17.49623677 11.13530644 17 7 C15.20006226 4.30009338 13.916227 2.4581135 11 1 C5.88480995 0.43164555 3.67158417 1.43331824 0 5 Z " fill="#B277E7" transform="translate(54,246)"/>
<path d="M0 0 C0.33 0.66 0.66 1.32 1 2 C1.969375 2.391875 2.93875 2.78375 3.9375 3.1875 C7 5 7 5 8.5 8.25 C9.07200488 12.54003663 8.68178739 15.02486617 7 19 C4.72893429 21.20968555 3.44353754 21.94662299 0.2734375 22.328125 C-0.68304688 22.30234375 -1.63953125 22.2765625 -2.625 22.25 C-3.58664063 22.23453125 -4.54828125 22.2190625 -5.5390625 22.203125 C-8 22 -8 22 -10 21 C-10 20.01 -10 19.02 -10 18 C-10.66 18 -11.32 18 -12 18 C-12.02715383 16.25008666 -12.04646551 14.50005055 -12.0625 12.75 C-12.07410156 11.77546875 -12.08570313 10.8009375 -12.09765625 9.796875 C-12.01045025 7.29929507 -11.88885032 5.32868388 -11 3 C-7.25241255 0.61517162 -4.43651689 -0.39145737 0 0 Z M-9.5625 5.5 C-11.57641782 9.00246578 -11.87555677 12.12143713 -11 16 C-9.10350449 19.14658666 -9.10350449 19.14658666 -6 21 C-1.5882483 21.7878128 0.22192774 21.52975133 3.9375 19 C6.79117716 14.84919686 6.7099846 12.9698922 6 8 C4.73061576 5.31379818 4.73061576 5.31379818 2 4 C-2.31481639 3.23995895 -5.74317604 3.26429817 -9.5625 5.5 Z " fill="#A39BEF" transform="translate(151,215)"/>
<path d="M0 0 C1.32 0.66 2.64 1.32 4 2 C4.2421875 4.265625 4.2421875 4.265625 4 7 C2.3203125 8.984375 2.3203125 8.984375 0.125 10.75 C-0.59429687 11.34296875 -1.31359375 11.9359375 -2.0546875 12.546875 C-7.26403962 16.43819827 -13.75846529 15.40138487 -20 15 C-23.21543896 14.26160814 -25.93923004 13.2665255 -29 12 C-29 11.34 -29 10.68 -29 10 C-29.763125 9.731875 -30.52625 9.46375 -31.3125 9.1875 C-33.87380884 8.05575888 -35.19692938 7.08776599 -37 5 C-33.21213403 5.5260925 -30.82847776 6.38103911 -28 9 C-28 9.66 -28 10.32 -28 11 C-20.2818625 12.28635625 -12.40281131 13.0621437 -5 10 C-1.93468711 7.85308458 -1.93468711 7.85308458 0 5 C0.41986946 2.28836222 0.41986946 2.28836222 0 0 Z " fill="#81C3FD" transform="translate(183,184)"/>
<path d="M0 0 C1.48873294 2.36445821 2.00636486 3.73904068 1.9375 6.5625 C1 9 1 9 -1 10.75 C-4.96000523 12.40000218 -8.74600483 12.73122906 -13 13 C-10.65890118 11.43926745 -8.43666597 10.13626133 -5.9375 8.875 C-5.24527344 8.52179688 -4.55304688 8.16859375 -3.83984375 7.8046875 C-2 7 -2 7 0 7 C-0.66 5.68 -1.32 4.36 -2 3 C-6.80366233 4.59111844 -11.59435543 6.21623542 -16.375 7.875 C-17.45007813 8.24044922 -17.45007813 8.24044922 -18.546875 8.61328125 C-23.5957661 10.37219096 -28.25844565 12.52754164 -33 15 C-33 12 -33 12 -31.6875 9.875 C-28.00379933 7.30497628 -24.77674274 7.42542425 -20.36328125 7.2734375 C-19.58339844 7.18320313 -18.80351563 7.09296875 -18 7 C-17.67 6.34 -17.34 5.68 -17 5 C-15.109375 4.21875 -15.109375 4.21875 -12.75 3.5 C-10.14389476 2.68507503 -7.65194131 1.85623663 -5.125 0.8125 C-3 0 -3 0 0 0 Z " fill="#84A1EC" transform="translate(118,194)"/>
<path d="M0 0 C0 0.66 0 1.32 0 2 C-1.98 2.66 -3.96 3.32 -6 4 C-5.67 4.66 -5.34 5.32 -5 6 C-1.37114676 6.15149298 -1.37114676 6.15149298 2 5 C2.33 5.99 2.66 6.98 3 8 C8.48907231 12.17300015 14.83822885 12.78522527 21.5 13.25 C22.4178125 13.32734375 23.335625 13.4046875 24.28125 13.484375 C26.52008322 13.67094443 28.75896751 13.84248743 31 14 C31 14.33 31 14.66 31 15 C21.56439914 16.93550787 12.8452869 16.65330431 4.5 11.4375 C0.88435483 9.35850403 -2.92871716 8.75394127 -7 8 C-7.33 6.35 -7.66 4.7 -8 3 C-2.25 0 -2.25 0 0 0 Z " fill="#A2D5FF" transform="translate(143,185)"/>
<path d="M0 0 C0.33 0.33 0.66 0.66 1 1 C3.32817964 1.36760731 5.6618385 1.70241581 8 2 C10.84964058 8.07841789 12.72805471 12.37579029 11 19 C10.67 19 10.34 19 10 19 C9.92523438 18.33613281 9.85046875 17.67226562 9.7734375 16.98828125 C8.88883991 10.70096667 8.88883991 10.70096667 5 5.9375 C-0.08411859 2.65400675 -3.99028731 2.29243444 -10 3 C-12.41534564 4.08453755 -13.9518276 5.27522324 -16 7 C-16.66 6.34 -17.32 5.68 -18 5 C-12.78164137 0.40784441 -6.77029388 -0.40621763 0 0 Z " fill="#AB9FF4" transform="translate(190,230)"/>
<path d="M0 0 C2.9375 0.1875 2.9375 0.1875 3.9375 1.1875 C4.125 4.125 4.125 4.125 3.9375 7.1875 C3.2775 7.8475 2.6175 8.5075 1.9375 9.1875 C-1.1875 8.8125 -1.1875 8.8125 -4.0625 8.1875 C-4.6875 5.3125 -4.6875 5.3125 -5.0625 2.1875 C-3.0625 0.1875 -3.0625 0.1875 0 0 Z " fill="#B984E1" transform="translate(126.0625,255.8125)"/>
<path d="M0 0 C0.66 0 1.32 0 2 0 C3.5078125 2.1171875 3.5078125 2.1171875 5.125 4.875 C5.66382813 5.77992188 6.20265625 6.68484375 6.7578125 7.6171875 C8 10 8 10 8 12 C7.34 12 6.68 12 6 12 C3.77810176 9.77810176 3.07401108 7.91517292 2 5 C1.34 5 0.68 5 0 5 C-0.99 6.485 -0.99 6.485 -2 8 C-4.05859375 8.94921875 -4.05859375 8.94921875 -6.4375 9.6875 C-7.61119141 10.06455078 -7.61119141 10.06455078 -8.80859375 10.44921875 C-11 11 -11 11 -14 11 C-14 10.34 -14 9.68 -14 9 C-13.32453125 8.68546875 -12.6490625 8.3709375 -11.953125 8.046875 C-7.28782695 5.80861062 -3.48503153 3.92066047 0 0 Z " fill="#7AACF1" transform="translate(190,195)"/>
<path d="M0 0 C0.65355469 0.59748047 0.65355469 0.59748047 1.3203125 1.20703125 C5.00994686 4.48936831 8.43077198 6.99399746 13 9 C12.01 9.33 11.02 9.66 10 10 C8.29883624 9.05988318 6.63495707 8.05104383 5 7 C3.34630643 6.30177383 1.68272986 5.62501395 0 5 C-0.556875 5.99 -1.11375 6.98 -1.6875 8 C-3.31130379 10.82576531 -4.94672813 13.64370023 -6.625 16.4375 C-7.23214844 17.45650391 -7.23214844 17.45650391 -7.8515625 18.49609375 C-8.23054688 18.99238281 -8.60953125 19.48867187 -9 20 C-9.66 20 -10.32 20 -11 20 C-9.56952311 14.89115395 -7.28610306 10.98255739 -4.375 6.625 C-3.95476563 5.98433594 -3.53453125 5.34367188 -3.1015625 4.68359375 C-2.07370232 3.11844302 -1.03768114 1.55865686 0 0 Z " fill="#869AEB" transform="translate(64,196)"/>
<path d="M0 0 C0.33 0.66 0.66 1.32 1 2 C3.31 2 5.62 2 8 2 C5 4 5 4 3 4 C3.33 5.32 3.66 6.64 4 8 C4.85464844 8.19335938 5.70929688 8.38671875 6.58984375 8.5859375 C7.69457031 8.84632813 8.79929688 9.10671875 9.9375 9.375 C11.59072266 9.75785156 11.59072266 9.75785156 13.27734375 10.1484375 C14.17582031 10.42945313 15.07429688 10.71046875 16 11 C16.33 11.66 16.66 12.32 17 13 C9.75420281 13.67090715 5.24161903 11.58125682 -1 8 C-0.67 6.68 -0.34 5.36 0 4 C-0.66 4 -1.32 4 -2 4 C-2 3.01 -2 2.02 -2 1 C-1.34 0.67 -0.68 0.34 0 0 Z " fill="#D9F5FF" transform="translate(132,184)"/>
<path d="M0 0 C4.44636223 5.3474381 7.77010929 11.18610311 11.25 17.1875 C11.8996875 18.29287109 12.549375 19.39824219 13.21875 20.53710938 C13.83234375 21.59091797 14.4459375 22.64472656 15.078125 23.73046875 C15.63918945 24.69364014 16.20025391 25.65681152 16.77832031 26.64916992 C18 29 18 29 18 31 C17.34 31 16.68 31 16 31 C12 24.375 12 24.375 12 21 C11.34 21 10.68 21 10 21 C8.51219708 18.44218125 7.03466662 15.87929734 5.5625 13.3125 C5.14162109 12.59126953 4.72074219 11.87003906 4.28710938 11.12695312 C2.18393206 7.44218648 0.46609532 4.29655145 0 0 Z " fill="#88A1EA" transform="translate(198,207)"/>
<path d="M0 0 C3.4375 1.75 3.4375 1.75 5.4375 4.75 C5.97349846 7.81365433 5.99567254 10.6883407 5.4375 13.75 C3.0625 16.3125 3.0625 16.3125 0.4375 17.75 C-0.2225 17.75 -0.8825 17.75 -1.5625 17.75 C-1.5625 17.09 -1.5625 16.43 -1.5625 15.75 C-0.9025 15.358125 -0.2425 14.96625 0.4375 14.5625 C2.81730911 12.80160856 2.81730911 12.80160856 2.875 9.25 C2.73842464 5.87799129 2.73842464 5.87799129 1.203125 4.04296875 C-1.08771228 2.36538658 -2.44243475 2.44043195 -5.25 2.5625 C-6.46236328 2.60310547 -6.46236328 2.60310547 -7.69921875 2.64453125 C-8.31410156 2.67933594 -8.92898437 2.71414062 -9.5625 2.75 C-6.35078377 -0.76759397 -4.73855671 -1.66265148 0 0 Z " fill="#C8EDFF" transform="translate(120.5625,147.25)"/>
<path d="M0 0 C0 0.66 0 1.32 0 2 C-1.65 2.33 -3.3 2.66 -5 3 C-5 3.99 -5 4.98 -5 6 C-4.01 6.33 -3.02 6.66 -2 7 C-2 7.66 -2 8.32 -2 9 C-5.3 8.67 -8.6 8.34 -12 8 C-11.9375 5.6875 -11.9375 5.6875 -11 3 C-7.03623776 0.83114896 -4.53922384 0 0 0 Z " fill="#AAA5F7" transform="translate(105,207)"/>
<path d="M0 0 C1 2 1 2 0.3125 4.375 C0.209375 5.24125 0.10625 6.1075 0 7 C1.83358335 9.33454661 1.83358335 9.33454661 4 11 C3.01 11.33 2.02 11.66 1 12 C1.33 14.31 1.66 16.62 2 19 C-0.84903962 16.42667389 -2.44586372 14.82422448 -3 11 C-2.6953125 8.45703125 -2.6953125 8.45703125 -2.125 5.8125 C-1.94195312 4.93207031 -1.75890625 4.05164063 -1.5703125 3.14453125 C-1 1 -1 1 0 0 Z " fill="#D0B4FD" transform="translate(87,220)"/>
<path d="M0 0 C0 0.66 0 1.32 0 2 C-1.72526042 2.68359375 -3.45052083 3.3671875 -5.17578125 4.05078125 C-7.30738444 5.15994522 -8.55794209 6.06553208 -10 8 C-10.36213568 10.51289675 -10.36213568 10.51289675 -10.1875 13.1875 C-10.16042969 14.08855469 -10.13335937 14.98960937 -10.10546875 15.91796875 C-10.07066406 16.60503906 -10.03585938 17.29210937 -10 18 C-10.66 18 -11.32 18 -12 18 C-12.02715383 16.25008666 -12.04646551 14.50005055 -12.0625 12.75 C-12.07410156 11.77546875 -12.08570313 10.8009375 -12.09765625 9.796875 C-12.01045025 7.29929507 -11.88885032 5.32868388 -11 3 C-7.25241255 0.61517162 -4.43651689 -0.39145737 0 0 Z " fill="#8E98FC" transform="translate(151,215)"/>
<path d="M0 0 C7.92 0.66 15.84 1.32 24 2 C24 2.33 24 2.66 24 3 C15.24308419 4.79629042 8.29342722 4.29384343 0 1 C0 0.67 0 0.34 0 0 Z " fill="#C1E7FF" transform="translate(150,197)"/>
<path d="M0 0 C4.87384699 0.45338112 7.60413282 1.42057244 11 5 C14.16472198 10.51077071 14.20389305 14.87108992 13 21 C12.67 21 12.34 21 12 21 C11.91363281 20.20335937 11.82726562 19.40671875 11.73828125 18.5859375 C10.84766052 11.86951329 10.15824439 7.55844853 5 3 C2.3485518 1.60180488 2.3485518 1.60180488 0 1 C0 0.67 0 0.34 0 0 Z " fill="#A69AF2" transform="translate(103,216)"/>
<path d="M0 0 C0.70125 0.144375 1.4025 0.28875 2.125 0.4375 C-0.41123188 4.24184783 -0.41123188 4.24184783 -2.875 5.28125 C-5.54032388 6.82214037 -5.792681 8.14938349 -6.625 11.0625 C-6.86734375 11.87976563 -7.1096875 12.69703125 -7.359375 13.5390625 C-7.52953125 14.16554687 -7.6996875 14.79203125 -7.875 15.4375 C-8.205 15.4375 -8.535 15.4375 -8.875 15.4375 C-9.40812853 10.37277896 -9.43505273 7.49901736 -6.1875 3.4375 C-3.95236862 1.09618661 -3.2818562 0.4994129 0 0 Z " fill="#CEEBFF" transform="translate(110.875,141.5625)"/>
<path d="M0 0 C3.34952523 3.2038937 4.19397783 5.16858509 4.375 9.8125 C4.36164345 14.42718712 4.36164345 14.42718712 2.8828125 16.76953125 C1.5 18.125 1.5 18.125 -1 20 C-1.33 19.01 -1.66 18.02 -2 17 C-1.01 17 -0.02 17 1 17 C2.0748291 10.72532201 1.88341198 6.09339169 0 0 Z " fill="#9B7CE2" transform="translate(229,260)"/>
<path d="M0 0 C0.66 0.33 1.32 0.66 2 1 C1.59007813 1.48726562 1.18015625 1.97453125 0.7578125 2.4765625 C-4.37686857 9.23272181 -5.31220487 15.66344862 -6 24 C-6.33 24 -6.66 24 -7 24 C-7.38140406 15.52435418 -7.68735787 8.21412329 -1.8125 1.5 C-1.214375 1.005 -0.61625 0.51 0 0 Z " fill="#A59DEE" transform="translate(83,209)"/>
<path d="M0 0 C0.66 0.99 1.32 1.98 2 3 C1.33613281 2.95359375 0.67226562 2.9071875 -0.01171875 2.859375 C-5.78373693 2.58508011 -5.78373693 2.58508011 -11 4.8125 C-13.13146611 7.03247054 -13.13146611 7.03247054 -15 10 C-14.51053485 4.49351702 -14.51053485 4.49351702 -12.125 2.1875 C-8.03477667 -0.09821304 -4.630383 -0.33675513 0 0 Z " fill="#B58EE8" transform="translate(130,248)"/>
<path d="M0 0 C0.33 0 0.66 0 1 0 C1.62362205 9.89133858 1.62362205 9.89133858 -0.6875 14 C-3.06968904 16.0602716 -5.12179863 17.70480939 -8 19 C-10.3125 18.6875 -10.3125 18.6875 -12 18 C-11.0925 17.608125 -10.185 17.21625 -9.25 16.8125 C-5.64340574 14.80113012 -4.10900699 13.54011887 -2 10 C-1.10797727 6.69546124 -0.49945738 3.38448093 0 0 Z " fill="#BB9CED" transform="translate(114,228)"/>
<path d="M0 0 C1.67542976 0.28604898 3.34385343 0.61781233 5 1 C5 2.65 5 4.3 5 6 C3.02 6 1.04 6 -1 6 C-1.042721 4.33388095 -1.04063832 2.66617115 -1 1 C-0.67 0.67 -0.34 0.34 0 0 Z " fill="#BF6EFA" transform="translate(124,257)"/>
<path d="M0 0 C0.66 0.66 1.32 1.32 2 2 C1.175 2.78375 0.35 3.5675 -0.5 4.375 C-3.22988506 6.63721264 -3.22988506 6.63721264 -3 9 C-3 9.99 -3 10.98 -3 12 C-4.32 11.34 -5.64 10.68 -7 10 C-6.67 8.35 -6.34 6.7 -6 5 C-5.34 5 -4.68 5 -4 5 C-3.896875 4.360625 -3.79375 3.72125 -3.6875 3.0625 C-3.460625 2.381875 -3.23375 1.70125 -3 1 C-2.01 0.67 -1.02 0.34 0 0 Z " fill="#EEDCFF" transform="translate(93,217)"/>
<path d="M0 0 C-2.68232661 1.78821774 -5.30288961 3.20142604 -8.1875 4.625 C-9.08855469 5.07101563 -9.98960938 5.51703125 -10.91796875 5.9765625 C-11.94857422 6.48316406 -11.94857422 6.48316406 -13 7 C-13 4 -13 4 -11.5625 1.8125 C-7.82526988 -0.83090667 -4.43935818 -0.34148909 0 0 Z " fill="#99A0F2" transform="translate(98,202)"/>
<path d="M0 0 C1.03125 0.00322266 2.0625 0.00644531 3.125 0.00976562 C4.74535156 0.02233398 4.74535156 0.02233398 6.3984375 0.03515625 C8.03039062 0.04192383 8.03039062 0.04192383 9.6953125 0.04882812 C12.38807539 0.06063849 15.08072938 0.07710847 17.7734375 0.09765625 C17.7734375 0.42765625 17.7734375 0.75765625 17.7734375 1.09765625 C8.3684375 1.59265625 8.3684375 1.59265625 -1.2265625 2.09765625 C-1.2265625 2.42765625 -1.2265625 2.75765625 -1.2265625 3.09765625 C-3.2065625 3.09765625 -5.1865625 3.09765625 -7.2265625 3.09765625 C-7.2265625 2.43765625 -7.2265625 1.77765625 -7.2265625 1.09765625 C-4.66933021 -0.1809599 -2.85919148 -0.01570984 0 0 Z " fill="#EFEEF7" transform="translate(92.2265625,6.90234375)"/>
<path d="M0 0 C1.65 0.33 3.3 0.66 5 1 C4.67 2.65 4.34 4.3 4 6 C2.35 5.67 0.7 5.34 -1 5 C-0.67 3.35 -0.34 1.7 0 0 Z " fill="#B67BDF" transform="translate(60,253)"/>
<path d="M0 0 C4.86954788 1.39129939 7.16340273 3.86667254 10 8 C10.3125 10.875 10.3125 10.875 10 13 C9.5875 12.443125 9.175 11.88625 8.75 11.3125 C4.90854142 6.11683666 4.90854142 6.11683666 0 2 C0 1.34 0 0.68 0 0 Z " fill="#C8ECFF" transform="translate(122,141)"/>
<path d="M0 0 C2.0625 0.4375 2.0625 0.4375 4 1 C4.5625 2.9375 4.5625 2.9375 5 5 C4 6 4 6 1.4375 6.0625 C0.2309375 6.0315625 0.2309375 6.0315625 -1 6 C-1.042721 4.33388095 -1.04063832 2.66617115 -1 1 C-0.67 0.67 -0.34 0.34 0 0 Z " fill="#A8A2EE" transform="translate(147,224)"/>
<path d="M0 0 C5.46864457 1.01591421 10.76390013 2.07091057 16 4 C16 4.33 16 4.66 16 5 C10.39538469 4.57910004 5.27913453 4.08386889 0 2 C0 1.34 0 0.68 0 0 Z " fill="#ECFEFF" transform="translate(143,196)"/>
<path d="M0 0 C0.33 0.66 0.66 1.32 1 2 C3.31 2 5.62 2 8 2 C5 4 5 4 3 4 C3 4.66 3 5.32 3 6 C2.01 6 1.02 6 0 6 C0 5.34 0 4.68 0 4 C-0.66 4 -1.32 4 -2 4 C-2 3.01 -2 2.02 -2 1 C-1.34 0.67 -0.68 0.34 0 0 Z " fill="#C1EFFF" transform="translate(132,184)"/>
<path d="M0 0 C0.33 0 0.66 0 1 0 C1.62068966 9.03448276 1.62068966 9.03448276 -0.6875 12.625 C-3.36935783 14.21961817 -4.93109509 14.34098943 -8 14 C-4.25 11 -4.25 11 -2 11 C-1.34 7.37 -0.68 3.74 0 0 Z " fill="#C18AE8" transform="translate(136,257)"/>
<path d="M0 0 C0.33 0.99 0.66 1.98 1 3 C-3.40639354 5.20319677 -5.97450871 6.10924981 -11 6 C-8.61542052 4.41028035 -6.3695876 3.13258407 -3.8125 1.875 C-3.09707031 1.52179688 -2.38164063 1.16859375 -1.64453125 0.8046875 C-1.10183594 0.53914062 -0.55914062 0.27359375 0 0 Z " fill="#95A8F0" transform="translate(116,201)"/>
<path d="M0 0 C0.66 0.33 1.32 0.66 2 1 C1.50628906 1.31453125 1.01257813 1.6290625 0.50390625 1.953125 C-0.13675781 2.38109375 -0.77742188 2.8090625 -1.4375 3.25 C-2.07558594 3.66765625 -2.71367188 4.0853125 -3.37109375 4.515625 C-5.29902057 6.27248877 -5.61479436 7.46089803 -6 10 C-6.66 10 -7.32 10 -8 10 C-7.375 6.6875 -7.375 6.6875 -6 3 C-3 1 -3 1 0 0 Z " fill="#77A3F0" transform="translate(78,181)"/>
<path d="M0 0 C0.66 0 1.32 0 2 0 C2 4 2 8 2 12 C0.5 11 0.5 11 -1 9 C-1.33190332 6.24520245 -1.18037589 3.79582634 -1 1 C-0.67 0.67 -0.34 0.34 0 0 Z " fill="#C9EEFF" transform="translate(109,151)"/>
<path d="M0 0 C2.25 0.875 2.25 0.875 3.25 2.875 C0.61 2.875 -2.03 2.875 -4.75 2.875 C-5.41 4.525 -6.07 6.175 -6.75 7.875 C-7.08 6.555 -7.41 5.235 -7.75 3.875 C-3.47273325 -0.15785151 -3.47273325 -0.15785151 0 0 Z " fill="#BBA8F1" transform="translate(102.75,222.125)"/>
<path d="M0 0 C0.66 0.33 1.32 0.66 2 1 C-1.5087188 4.09592835 -4.49197399 5.74194623 -9 7 C-9 6.34 -9 5.68 -9 5 C-7.54735962 4.1361871 -6.0876837 3.28419546 -4.625 2.4375 C-3.40683594 1.72400391 -3.40683594 1.72400391 -2.1640625 0.99609375 C-1.44992188 0.66738281 -0.73578125 0.33867187 0 0 Z " fill="#FBF0FF" transform="translate(242,295)"/>
<path d="M0 0 C-3.6413547 2.33046701 -6.7524747 2.30891093 -11 2 C-11.99 1.34 -12.98 0.68 -14 0 C-12.41773035 -0.19627391 -10.83410729 -0.38165538 -9.25 -0.5625 C-8.36828125 -0.66691406 -7.4865625 -0.77132812 -6.578125 -0.87890625 C-4.11567549 -0.99456676 -2.33461936 -0.73638695 0 0 Z " fill="#B281F3" transform="translate(105,248)"/>
<path d="M0 0 C0.99 0.33 1.98 0.66 3 1 C2.26330078 1.58201172 2.26330078 1.58201172 1.51171875 2.17578125 C-0.50725753 4.61211696 -0.30898805 6.06930672 -0.1875 9.1875 C-0.16042969 10.08855469 -0.13335937 10.98960937 -0.10546875 11.91796875 C-0.07066406 12.60503906 -0.03585938 13.29210937 0 14 C-0.66 14 -1.32 14 -2 14 C-2.05410687 12.22950311 -2.09284119 10.45853151 -2.125 8.6875 C-2.14820313 7.70136719 -2.17140625 6.71523437 -2.1953125 5.69921875 C-2 3 -2 3 0 0 Z " fill="#A7A7EE" transform="translate(141,219)"/>
<path d="M0 0 C0.66 0.33 1.32 0.66 2 1 C1.67 2.65 1.34 4.3 1 6 C-0.65 6 -2.3 6 -4 6 C-2.84826645 3.53199953 -1.95216435 1.95216435 0 0 Z " fill="#B9ECFF" transform="translate(124,92)"/>
<path d="M0 0 C0.33 0 0.66 0 1 0 C1 3.96 1 7.92 1 12 C-1.64285714 8.03571429 -1.64285714 8.03571429 -2 5 C-1.0625 2.25 -1.0625 2.25 0 0 Z " fill="#B575F2" transform="translate(114,254)"/>
<path d="M0 0 C0.99 1.485 0.99 1.485 2 3 C3.31266518 4.35368596 4.64567325 5.68799596 6 7 C6.66 7.66 7.32 8.32 8 9 C5.125 8.6875 5.125 8.6875 2 8 C-0.1519437 4.77208445 -0.20086443 3.71599191 0 0 Z " fill="#BD7EE5" transform="translate(115,262)"/>
<path d="M0 0 C2.64 0.33 5.28 0.66 8 1 C8.33 2.32 8.66 3.64 9 5 C8.01 4.34 7.02 3.68 6 3 C3.67612053 2.60612212 1.34206251 2.26513915 -1 2 C-0.67 1.34 -0.34 0.68 0 0 Z " fill="#A5ADF2" transform="translate(147,217)"/>
<path d="M0 0 C1 2 1 2 0.44140625 3.9453125 C0.15136719 4.66460937 -0.13867188 5.38390625 -0.4375 6.125 C-0.72496094 6.84945312 -1.01242188 7.57390625 -1.30859375 8.3203125 C-1.53675781 8.87460938 -1.76492187 9.42890625 -2 10 C-2.99 10 -3.98 10 -5 10 C-3.66511872 6.40608886 -2.03977277 3.24509304 0 0 Z " fill="#A87BE2" transform="translate(35,245)"/>
<path d="M0 0 C0 1.98 0 3.96 0 6 C-1.32 6 -2.64 6 -4 6 C-3.625 3.5625 -3.625 3.5625 -3 1 C-1 0 -1 0 0 0 Z " fill="#BEB2FD" transform="translate(97,209)"/>
<path d="M0 0 C0.66 0 1.32 0 2 0 C1.67 1.65 1.34 3.3 1 5 C-0.65 5 -2.3 5 -4 5 C-2.71937515 3.2925002 -1.38232443 1.62626404 0 0 Z " fill="#6FB5FC" transform="translate(182,190)"/>
<path d="M0 0 C4 2 4 2 5.25 5.125 C5.4975 6.07375 5.745 7.0225 6 8 C5.34 8 4.68 8 4 8 C2.68 5.36 1.36 2.72 0 0 Z " fill="#888FE7" transform="translate(210,230)"/>
<path d="M0 0 C0 3.59947819 -0.83412607 4.25100617 -3 7 C-3.69580267 8.31836295 -4.37224433 9.64791086 -5 11 C-4.50769231 4.6 -4.50769231 4.6 -1.9375 1.5625 C-0.9784375 0.7890625 -0.9784375 0.7890625 0 0 Z " fill="#E7DAFE" transform="translate(90,212)"/>
<path d="M0 0 C0.66 0 1.32 0 2 0 C1.75 2.875 1.75 2.875 1 6 C-1.0625 7.375 -1.0625 7.375 -3 8 C-2.01 5.36 -1.02 2.72 0 0 Z " fill="#CDECFF" transform="translate(131,158)"/>
<path d="M0 0 C0 0.99 0 1.98 0 3 C-1 4 -1 4 -3.06640625 4.09765625 C-3.89011719 4.08605469 -4.71382812 4.07445312 -5.5625 4.0625 C-6.38878906 4.05347656 -7.21507812 4.04445313 -8.06640625 4.03515625 C-8.70449219 4.02355469 -9.34257812 4.01195312 -10 4 C-10 3.67 -10 3.34 -10 3 C-6.97265625 2.26757812 -6.97265625 2.26757812 -3.9453125 1.53515625 C-1.9414343 1.05153008 -1.9414343 1.05153008 0 0 Z " fill="#BE99ED" transform="translate(194,258)"/>
<path d="M0 0 C0.6875 1.6875 0.6875 1.6875 1 4 C-0.3125 6.75 -0.3125 6.75 -2 9 C-2.66 9 -3.32 9 -4 9 C-2.94124926 5.59687262 -1.99097846 2.98646769 0 0 Z " fill="#9199EB" transform="translate(57,207)"/>
</svg>
